PathFileType	4	(X/Y/Z)	C:/Users/opensim2020/Desktop/walking_exp_matlab/subject01_walking10_straight_03.trc	
DataRate	CameraRate	NumFrames	NumMarkers	Units	OrigDataRate	OrigDataStartFrame	OrigNumFrames	
100.00	100.00	5	43	mm	100.00	2929	317	
Frame#	Time	LFHD			RFHD			LBHD			RBHD			C7			T10			CLAV			STRN			RBAK			LSHO			LUPA			LELB			LFRM			LWRA			LWRB			LFIN			RSHO			RUPA			RELB			RFRM			RWRA			RWRB			RFIN			LASI			RASI			LPSI			RPSI			LTHI			LKNE			LTIB			LANK			LHEE			LTOE			RTHI			RKNE			RTIB			RANK			RHEE			RTOE			*39			*40			*41			*42			
		X1	Y1	Z1	X2	Y2	Z2	X3	Y3	Z3	X4	Y4	Z4	X5	Y5	Z5	X6	Y6	Z6	X7	Y7	Z7	X8	Y8	Z8	X9	Y9	Z9	X10	Y10	Z10	X11	Y11	Z11	X12	Y12	Z12	X13	Y13	Z13	X14	Y14	Z14	X15	Y15	Z15	X16	Y16	Z16	X17	Y17	Z17	X18	Y18	Z18	X19	Y19	Z19	X20	Y20	Z20	X21	Y21	Z21	X22	Y22	Z22	X23	Y23	Z23	X24	Y24	Z24	X25	Y25	Z25	X26	Y26	Z26	X27	Y27	Z27	X28	Y28	Z28	X29	Y29	Z29	X30	Y30	Z30	X31	Y31	Z31	X32	Y32	Z32	X33	Y33	Z33	X34	Y34	Z34	X35	Y35	Z35	X36	Y36	Z36	X37	Y37	Z37	X38	Y38	Z38	X39	Y39	Z39	X40	Y40	Z40	X41	Y41	Z41	X42	Y42	Z42	X43	Y43	Z43	

80	0.790	1480.57983	-406.49625	1678.57861	1589.21851	-374.18353	1688.08142	1509.05017	-510.18060	1615.15955	1624.74072	-478.37573	1623.57544	1538.93896	-518.24457	1430.98218	1546.79944	-548.90149	1139.34387	1530.55432	-373.11063	1367.57776	1520.87683	-328.61554	1212.21338	1616.89258	-564.36969	1235.83337	1372.64734	-439.53683	1397.57227	1291.02734	-480.11572	1213.38110	1294.37891	-502.84283	1064.36707	1266.91394	-476.21671	954.99811	1276.18506	-405.70999	834.76935	1260.67090	-463.60846	832.64044	1245.99707	-420.77151	759.78967	1685.42920	-429.04999	1391.45483	1787.80957	-468.35129	1187.44995	1791.24475	-454.04858	1063.22498	1821.88428	-406.24509	952.58301	1812.08496	-302.39096	856.49463	1842.36060	-350.28586	844.92090	1847.39612	-296.36014	778.69958	1425.04810	-389.50281	935.93097	1641.33325	-372.56329	931.38513	1488.56409	-570.87842	943.44324	1633.25952	-558.80420	946.69550	1343.88147	-340.30347	622.44543	1353.16260	-312.96838	490.32227	1349.79248	-384.59424	316.79828	1399.06653	-431.37643	102.03391	1461.49597	-465.02725	72.30412	1359.92126	-302.00769	52.53179	1688.80371	-424.47711	598.29584	1657.73071	-425.99332	438.90042	1664.22021	-488.06302	272.86105	1608.74402	-530.03656	72.23539	1560.90588	-582.91718	35.81744	1601.57910	-390.61823	34.15342	1570.11707	-395.24561	1719.02319	-3101.89819	1973.18359	1023.49097	-3140.65771	2012.45508	1022.02271			 
81	0.800	1479.79187	-400.20139	1678.09802	1588.46143	-367.86453	1687.74487	1508.33838	-503.98709	1614.76221	1624.04187	-472.02896	1623.24841	1538.74402	-511.69983	1430.64087	1546.40222	-542.90253	1139.14258	1530.12317	-366.73111	1367.15881	1520.55994	-322.42422	1211.68579	1616.84778	-558.00922	1235.70825	1372.29736	-433.39395	1397.00610	1290.90759	-475.13092	1212.94482	1294.33838	-498.62714	1064.14172	1266.97717	-473.20935	954.63818	1275.69629	-403.67346	833.74695	1260.46350	-461.66068	832.11670	1245.58704	-419.66385	758.91644	1685.06787	-422.24063	1391.15637	1787.82654	-461.18668	1187.23926	1791.35718	-446.81403	1062.93323	1821.90002	-398.02292	952.61981	1811.99304	-293.44968	857.51410	1842.21350	-341.17691	845.46594	1847.40002	-286.62418	779.89880	1424.80457	-383.56326	935.78687	1641.30090	-367.36490	930.90161	1487.99683	-565.18457	943.06226	1632.74158	-553.66083	946.26862	1343.16187	-334.58664	622.22211	1352.85242	-305.99677	490.45987	1348.40430	-371.51132	314.71964	1396.01367	-409.73932	97.79227	1458.23169	-442.14105	66.33542	1357.62903	-277.53134	53.15813	1688.44189	-420.45377	597.86224	1657.49890	-423.11862	438.45343	1663.99475	-486.30841	272.68616	1608.51404	-529.55463	72.32849	1560.65979	-583.22968	36.46325	1601.50940	-390.51389	33.95157	1569.33215	-388.97256	1718.70410	-3102.04395	1973.01599	1023.68250	-3140.72046	2012.49438	1022.01599			 
82	0.810	1478.97583	-393.73004	1677.59570	1587.61365	-361.55167	1687.44702	1507.53870	-497.58551	1614.18970	1623.29016	-465.61481	1622.88757	1538.48779	-505.43750	1430.35522	1545.84583	-536.83777	1138.87195	1529.65186	-360.30612	1366.64343	1520.26184	-316.18365	1211.15784	1616.77014	-551.71777	1235.56006	1371.85193	-427.22092	1396.44800	1290.70923	-469.96817	1212.50671	1294.28210	-494.28174	1063.89197	1266.65369	-469.89932	954.22314	1275.19141	-401.46692	832.72162	1260.15625	-459.53961	831.60297	1245.10706	-418.11444	758.01074	1684.66711	-415.42728	1390.78357	1787.79944	-454.04318	1186.98108	1791.45667	-439.56580	1062.64624	1821.81567	-389.89514	952.62836	1811.74109	-284.62497	858.44952	1841.76526	-332.23517	845.78595	1847.19287	-277.00592	780.98309	1424.56970	-377.66843	935.54156	1641.11694	-362.10492	930.39777	1487.29346	-559.43585	942.58289	1632.10413	-548.37708	945.85736	1342.48523	-329.01294	621.87683	1352.46619	-299.36694	490.35959	1346.75366	-358.33813	312.60214	1393.13635	-386.96179	93.81258	1454.79883	-419.32468	61.02596	1355.17737	-253.43463	54.49843	1688.15063	-416.42700	597.35956	1657.20654	-420.28491	437.91574	1663.68164	-484.84335	272.60251	1608.52661	-529.56366	72.55651	1560.64172	-582.66693	36.21886	1601.44873	-390.41141	33.92175	1568.43579	-382.73471	1718.25891	-3101.91138	1973.18408	1023.48810	-3140.76831	2012.57971	1022.12048			 
83	0.820	1478.12939	-387.31573	1677.10486	1586.66870	-355.16443	1687.03992	1506.78015	-490.95569	1613.46582	1622.41968	-459.24182	1622.44934	1538.21021	-498.77533	1429.97607	1545.25952	-530.83173	1138.62939	1529.14404	-353.88809	1366.10010	1519.88489	-309.97717	1210.54602	1616.52832	-545.35150	1235.27527	1371.38965	-421.04202	1395.87732	1290.40723	-464.84143	1212.00354	1293.99390	-489.99820	1063.67261	1266.30725	-466.46375	953.79706	1274.57520	-399.05554	831.75470	1259.78528	-457.20529	831.08276	1244.56006	-416.45950	757.20264	1684.20593	-408.63132	1390.37610	1787.62842	-446.95267	1186.57764	1791.41687	-432.31082	1062.24597	1821.61951	-381.76581	952.56543	1811.34753	-275.83176	859.27570	1841.43518	-323.34793	846.23114	1846.91541	-267.50696	781.97528	1424.29602	-371.71118	935.26794	1640.95166	-356.86694	929.91913	1486.53101	-553.68878	942.15027	1631.35840	-543.33447	945.44391	1341.81311	-323.47968	621.39838	1352.17078	-292.76877	490.26810	1345.01733	-345.21878	310.49585	1389.82825	-365.05228	90.28971	1451.17896	-396.49490	56.25045	1352.61780	-229.59169	55.99863	1687.64783	-412.43106	596.97308	1656.96643	-417.38837	437.41095	1663.54993	-482.89941	272.69363	1608.39966	-529.31293	72.63356	1560.57471	-582.66541	36.71989	1601.46875	-390.28915	33.93103	1567.48682	-376.29813	1717.84155	-3101.91968	1973.08643	1023.40027	-3140.65796	2012.51038	1022.03979			 
84	0.830	1477.10632	-380.96228	1676.38782	1585.66809	-348.75433	1686.55310	1505.88147	-484.69098	1612.91553	1621.50952	-452.75064	1621.95874	1537.69971	-492.33044	1429.48682	1544.53430	-524.79047	1138.26721	1528.48438	-347.52365	1365.46448	1519.44946	-303.73804	1209.87097	1616.25708	-539.07715	1234.97095	1370.79053	-414.79535	1395.23438	1290.00989	-459.59354	1211.57788	1293.63062	-485.31042	1063.38000	1266.06934	-462.90958	953.39465	1273.90930	-396.48016	830.77588	1259.30774	-454.69403	830.59583	1243.99219	-414.49878	756.57788	1683.65002	-401.90424	1389.88745	1787.31763	-439.79672	1186.18494	1791.28613	-425.04251	1061.83411	1821.32104	-373.66391	952.45190	1810.69897	-267.04782	860.01758	1840.77332	-314.59845	846.36469	1846.42542	-258.13950	782.81647	1423.90955	-365.46509	934.90424	1640.77991	-351.47552	929.42731	1485.66602	-547.83917	941.66315	1630.41882	-537.69891	944.68317	1341.08691	-318.08627	620.75220	1351.92993	-286.66940	489.61627	1343.16919	-332.25363	308.54041	1386.47998	-343.15924	87.39462	1447.28320	-373.96506	51.84207	1350.06433	-206.08920	57.90393	1687.26221	-408.45947	596.48376	1656.71436	-414.64752	436.95270	1663.33765	-481.60110	272.55328	1608.32532	-529.11090	72.86128	1560.34326	-582.94409	37.27534	1601.37292	-390.18417	33.75320	1566.23242	-370.06601	1717.16772	-3101.88647	1973.16650	1023.46918	-3140.69580	2012.45093	1021.89178			 
